<svg xmlns="http://www.w3.org/2000/svg" viewBox="0 0 80 120" fill="#7B2240">
  <!-- Left flame curl -->
  <path d="M28 120 C10 105, 4 88, 12 72 C18 60, 30 55, 34 45 C38 35, 30 25, 22 18 C16 12, 18 4, 24 0
           C22 8, 24 16, 32 22 C40 28, 48 36, 46 48 C44 58, 32 64, 26 74 C18 88, 22 102, 28 120Z" opacity="0.85"/>
  <!-- Middle flame curl -->
  <path d="M42 120 C24 105, 18 88, 26 72 C32 60, 44 55, 48 45 C52 35, 44 25, 36 18 C30 12, 32 4, 38 0
           C36 8, 38 16, 46 22 C54 28, 62 36, 60 48 C58 58, 46 64, 40 74 C32 88, 36 102, 42 120Z"/>
  <!-- Right flame curl -->
  <path d="M56 120 C38 105, 32 88, 40 72 C46 60, 58 55, 62 45 C66 35, 58 25, 50 18 C44 12, 46 4, 52 0
           C50 8, 52 16, 60 22 C68 28, 76 36, 74 48 C72 58, 60 64, 54 74 C46 88, 50 102, 56 120Z" opacity="0.85"/>
</svg>
